<?xml version="1.0" encoding="UTF-8"?>
<svg width="218" height="34" viewBox="0 0 218 34" fill="none" xmlns="http://www.w3.org/2000/svg">
    <path d="M43.6358 24.6163C39.9388 24.6163 37.2068 21.7203 37.2068 18.1633C37.2068 14.6063 39.9388 11.6393 43.6588 11.6393C46.0148 11.6393 47.4748 12.5113 48.6288 13.7833L46.8628 15.6903C45.9908 14.7723 45.0728 14.1363 43.6358 14.1363C41.5628 14.1363 40.0558 15.9263 40.0558 18.1163C40.0558 20.3533 41.5868 22.1433 43.7768 22.1433C45.1198 22.1433 46.1088 21.5073 47.0038 20.5893L48.7228 22.2843C47.4988 23.6503 46.0618 24.6163 43.6358 24.6163Z" fill="#1E3F6F"/>
    <path d="M54.1309 24.6163H51.2819V11.6633H54.1309V14.7013C54.9079 12.8403 56.3449 11.5683 58.5349 11.6633V14.6783H58.3699C55.8739 14.6783 54.1309 16.3033 54.1309 19.6003V24.6163Z" fill="#1E3F6F"/>
    <path d="M73.4517 11.6393L67.1547 28.1033H64.2657L65.6417 24.6203L60.2467 11.6393H63.2847L66.9657 21.2273L70.4997 11.6393H73.4517Z" fill="#1E3F6F"/>
    <path fill-rule="evenodd" clip-rule="evenodd" d="M78.3019 22.4024C79.1739 23.5564 80.4699 24.5924 82.5179 24.5924C85.4859 24.5924 88.3119 22.2614 88.3119 18.1164C88.3119 13.9704 85.4619 11.6394 82.5179 11.6394C80.5169 11.6394 79.2209 12.6754 78.3019 13.9704V11.6394H75.4529V28.1024H78.3019V22.4024ZM78.2319 18.1164C78.2319 15.6904 79.9279 14.1124 81.8589 14.1124C83.7899 14.1124 85.4149 15.6664 85.4149 18.1164C85.4149 20.5894 83.8139 22.1194 81.8589 22.1194C79.9279 22.1194 78.2319 20.5424 78.2319 18.1164Z" fill="#1E3F6F"/>
    <path d="M94.5586 14.3483V20.4463C94.5586 21.5523 95.1206 21.9993 96.0886 21.9993H97.2066V24.5443H95.2576C93.1836 24.5383 91.7096 23.6163 91.7096 20.8933V14.3483H90.1276V11.9013H91.7096V8.48529H94.5586V11.9013H97.2066V14.3483H94.5586Z" fill="#1E3F6F"/>
    <path fill-rule="evenodd" clip-rule="evenodd" d="M99.6252 18.1629C99.6252 21.7199 102.428 24.6159 106.22 24.6159C110.058 24.6159 112.885 21.6729 112.885 18.1159C112.885 14.5359 110.082 11.6389 106.267 11.6389C102.451 11.6389 99.6252 14.5829 99.6252 18.1629ZM102.475 18.1159C102.475 15.9259 103.935 14.1359 106.22 14.1359C108.457 14.1359 110.035 15.9489 110.035 18.1629C110.035 20.3539 108.574 22.1429 106.267 22.1429C104.053 22.1429 102.475 20.3299 102.475 18.1159Z" fill="#1E3F6F"/>
    <path d="M118.101 22.0026V23.4386C118.101 23.4996 118.071 23.5546 118.018 23.5826L116.775 24.3006C116.723 24.3306 116.659 24.3306 116.61 24.3006L115.364 23.5826C115.314 23.5546 115.281 23.4996 115.281 23.4386V22.0026C115.281 21.9446 115.314 21.8896 115.364 21.8586L116.61 21.1406C116.659 21.1106 116.723 21.1106 116.775 21.1406L118.018 21.8586C118.071 21.8896 118.101 21.9446 118.101 22.0026Z" fill="#1E3F6F"/>
    <path fill-rule="evenodd" clip-rule="evenodd" d="M133.535 18.1629C133.535 21.7199 136.338 24.6159 140.13 24.6159C143.968 24.6159 146.795 21.6729 146.795 18.1159C146.795 14.5359 143.992 11.6389 140.177 11.6389C136.361 11.6389 133.535 14.5829 133.535 18.1629ZM136.385 18.1159C136.385 15.9259 137.845 14.1359 140.13 14.1359C142.367 14.1359 143.944 15.9489 143.944 18.1629C143.944 20.3539 142.484 22.1429 140.177 22.1429C137.963 22.1429 136.385 20.3299 136.385 18.1159Z" fill="#1E3F6F"/>
    <path d="M126.777 24.6017C123.08 24.5307 120.404 21.5817 120.473 18.0257C120.541 14.4707 123.329 11.5567 127.049 11.6277C129.404 11.6727 130.847 12.5717 131.977 13.8657L130.174 15.7387C129.321 14.8037 128.415 14.1507 126.978 14.1227C124.906 14.0827 123.364 15.8437 123.322 18.0337C123.279 20.2707 124.776 22.0897 126.965 22.1317C128.308 22.1577 129.309 21.5407 130.221 20.6397L131.908 22.3677C130.658 23.7097 129.203 24.6477 126.777 24.6017Z" fill="#1E3F6F"/>
    <path d="M163.733 11.6393C166.442 11.6393 168.09 13.3583 168.09 16.3963V24.6163H165.241V17.2683C165.241 15.2903 164.322 14.2303 162.721 14.2303C161.167 14.2303 160.059 15.3133 160.059 17.3153V24.6163H157.21V17.2443C157.21 15.3133 156.267 14.2303 154.689 14.2303C153.112 14.2303 152.028 15.4083 152.028 17.3393V24.6163H149.178V11.6393H152.028V13.7833C152.829 12.6763 153.913 11.6393 155.82 11.6393C157.61 11.6393 158.858 12.5113 159.517 13.8293C160.531 12.5113 161.849 11.6393 163.733 11.6393Z" fill="#1E3F6F"/>
    <path fill-rule="evenodd" clip-rule="evenodd" d="M0.000244141 9.0737L13.9852 0.999695L27.9712 9.0737V25.2227L13.9852 33.2977L0.000244141 25.2227V9.0737ZM8.46424 7.98169H19.4702L20.7972 13.5927H7.18624L8.46424 7.98169ZM11.2682 21.0877L11.6352 17.5737L10.4342 14.4397H17.5612L16.3872 17.5737L16.7272 21.0747L13.9852 21.0877H11.2682ZM19.4942 26.9777H17.5112L15.1362 24.7907V23.6787L17.5992 21.3157V17.5867L20.8222 15.4897L24.4992 18.2567L19.4942 26.9777ZM10.5102 27.0027L12.8862 24.7907V23.6787L10.4222 21.3157V17.5867L7.16124 15.5147L3.47224 18.2567L8.50124 27.0027H10.5102Z" fill="#1E3F6F"/>
    <path fill-rule="evenodd" clip-rule="evenodd" d="M13.985 0.999695L0 9.0737V25.2227L13.985 33.2977V21.0877H11.269L11.635 17.5737L10.435 14.4397H13.985V13.5927H7.187L8.464 7.98169H13.985V0.999695ZM12.886 23.6787V24.7907L10.51 27.0027H8.501L3.472 18.2567L7.161 15.5147L10.422 17.5867V21.3157L12.886 23.6787Z" fill="url(#paint0_linear_8419_72763)"/>
    <path fill-rule="evenodd" clip-rule="evenodd" d="M27.971 9.0737L13.985 0.999695V7.98169H19.47L20.797 13.5927H13.985V14.4397H17.562L16.387 17.5737L16.728 21.0747L13.985 21.0877V33.2977L27.971 25.2227V9.0737ZM24.5 18.2567L19.494 26.9777H17.511L15.136 24.7907V23.6787L17.6 21.3157V17.5867L20.822 15.4897L24.5 18.2567Z" fill="url(#paint1_linear_8419_72763)"/>
    <path fill-rule="evenodd" clip-rule="evenodd" d="M180.899 24V18.825H184.096C187.638 18.825 190.536 16.939 190.536 13.328V13.282C190.536 10.039 188.19 7.89999 184.418 7.89999H178.07V24H180.899ZM184.188 16.272H180.899V10.476H184.188C186.304 10.476 187.661 11.465 187.661 13.351V13.397C187.661 15.076 186.327 16.272 184.188 16.272ZM200.334 22.482C199.506 23.471 198.241 24.253 196.378 24.253C194.101 24.253 192.077 22.942 192.077 20.504V20.458C192.077 17.836 194.124 16.548 197.091 16.548C198.448 16.548 199.414 16.755 200.357 17.054V16.755C200.357 15.03 199.299 14.11 197.344 14.11C195.987 14.11 194.975 14.409 193.871 14.869L193.135 12.684C194.469 12.086 195.78 11.695 197.712 11.695C199.529 11.695 200.886 12.178 201.737 13.052C202.634 13.926 203.048 15.214 203.048 16.801V24H200.334V22.482ZM197.16 22.229C195.826 22.229 194.791 21.562 194.791 20.389V20.343C194.791 19.078 195.849 18.319 197.643 18.319C198.747 18.319 199.69 18.526 200.403 18.802V19.63C200.403 21.171 199 22.229 197.16 22.229ZM212.409 24.345C211.443 26.829 210.362 27.749 208.407 27.749C207.257 27.749 206.383 27.473 205.532 27.013L206.475 24.943C206.981 25.219 207.533 25.403 208.108 25.403C208.89 25.403 209.373 25.058 209.833 24.023L204.773 11.856H207.763L211.19 20.872L214.341 11.856H217.239L212.409 24.345Z" fill="#1199FA"/>
    <defs>
        <linearGradient id="paint0_linear_8419_72763" x1="3.49625" y1="0.999695" x2="3.49625" y2="17.1487" gradientUnits="userSpaceOnUse">
            <stop stop-color="#021E3F"/>
            <stop stop-color="#022045"/>
            <stop offset="1" stop-color="#002A67"/>
        </linearGradient>
        <linearGradient id="paint1_linear_8419_72763" x1="24.2825" y1="32.4109" x2="24.2825" y2="17.1487" gradientUnits="userSpaceOnUse">
            <stop stop-color="#021E3F"/>
            <stop offset="1" stop-color="#002A67"/>
        </linearGradient>
    </defs>
</svg>
